<?xml version="1.0" encoding="UTF-8"?>
<!-- Madār · مدار · bilingual wordmark, v0.3 — outlines extracted from real fonts. -->
<!--
  Madār · مدار · bilingual wordmark, v0.3
  ----------------------------------------------------------------------
  v0.3 (2026-05-25): Glyph outlines extracted directly from the open-source
  Newsreader (Latin, Google Fonts, SIL OFL) and Amiri (Arabic Naskh,
  Google Fonts, SIL OFL) font files using fontTools. The marks ARE the
  typefaces, not hand-drafted approximations of them.

  The macron over the second a and the alif-madda over the alif are drawn
  as deliberately strengthened slabs on top of the extracted outlines —
  the brand's smallest repeatable typographic event. Both slabs sit at
  the same y-coordinate so the two scripts share a single horizontal reading.

  Arabic shaping for مدار:
    م → initial form (U+FEE3) — connects left to dal
    د → final form  (U+FEAA) — receives mim from its right
    ا → isolated   (U+FE8D)  — dal does not join left
    ر → isolated   (U+FEAD)  — alif does not join left

  Layout: viewBox 520×120. Latin run starts at x=110, Arabic run ends
  at x=410. The two scripts are visually balanced around a hairline at
  x=300. Equal optical weight, equal baseline at y=92.
  ----------------------------------------------------------------------
-->
<svg xmlns="http://www.w3.org/2000/svg"
     viewBox="0 0 520 120"
     role="img"
     aria-label="Madār — مدار"
     preserveAspectRatio="xMidYMid meet"
     fill="currentColor">

  <title>Madār · مدار</title>
  <desc>Madār bilingual wordmark. Latin set in Newsreader, Arabic set in Amiri, outlines extracted from the font files. The macron over ā and the alif-madda above the alif are drawn as heavier slabs — the brand's typographic signature.</desc>

  <!-- ============== Latin: Madār ==============
       Newsreader Regular outlines. Baseline y=92, scale 0.030.
       Five glyphs: M a d a r. The second a is overlaid with a heavy macron slab. -->
  <g id="latin">
    <path transform="translate(110.00,92) scale(0.03,-0.03)" d="M1738 101 1900 50V0H1407V50L1569 101L1492 1209L1506 1206L983 -16H907L381 1195L395 1197L327 101L489 50V0H60V50L219 101L305 1245L135 1302V1352H500L994 195H971L1467 1352H1816V1302L1652 1250Z"/>
    <path transform="translate(169.74,92) scale(0.03,-0.03)" d="M652 563 657 482Q531 456 451.0 429.0Q371 402 327.5 373.5Q284 345 267.5 312.0Q251 279 251 239Q251 171 292.0 134.5Q333 98 397 98Q448 98 489.5 122.0Q531 146 556.0 185.5Q581 225 581 271V631Q581 710 542.0 754.5Q503 799 411 799Q376 799 334.5 790.5Q293 782 255 764L310 815Q306 784 300.0 755.5Q294 727 286.5 704.5Q279 682 267 668Q251 647 226.5 638.5Q202 630 175 630Q139 630 119.0 646.0Q99 662 99 686Q99 718 130.0 753.5Q161 789 214.0 821.0Q267 853 333.5 873.0Q400 893 472 893Q567 893 625.0 864.5Q683 836 709.5 782.0Q736 728 736 649V190Q736 157 745.5 136.0Q755 115 774.0 104.5Q793 94 821 94Q844 94 870.0 102.0Q896 110 922 123V70Q880 25 832.5 4.0Q785 -17 744 -17Q694 -17 657.5 6.0Q621 29 602.0 73.0Q583 117 583 180L589 188Q576 126 539.5 79.5Q503 33 450.0 6.5Q397 -20 334 -20Q225 -20 157.0 38.5Q89 97 89 207Q89 266 113.0 314.5Q137 363 198.0 405.0Q259 447 369.5 485.5Q480 524 652 563Z"/>
    <path transform="translate(198.31,92) scale(0.03,-0.03)" d="M785 608Q785 696 726.0 752.5Q667 809 547 809Q454 809 389.0 764.5Q324 720 290.5 638.0Q257 556 257 444Q257 332 293.0 255.0Q329 178 394.5 139.0Q460 100 548 100Q627 100 700.5 124.5Q774 149 845 200V135Q766 86 712.0 55.0Q658 24 618.5 8.0Q579 -8 546.0 -14.0Q513 -20 478 -20Q349 -20 260.0 32.5Q171 85 126.0 179.0Q81 273 81 397Q81 515 119.0 608.0Q157 701 224.5 766.5Q292 832 380.0 866.5Q468 901 567 901Q619 901 667.5 892.5Q716 884 766.5 866.5Q817 849 874 819L785 763V1248Q773 1261 750.0 1274.5Q727 1288 699.0 1301.0Q671 1314 642 1326V1354L927 1430H950L939 1261V157Q948 148 964.5 138.0Q981 128 1001.0 118.0Q1021 108 1040.5 101.0Q1060 94 1076 91V59L832 -17H809L785 147Z"/>
    <path transform="translate(232.67,92) scale(0.03,-0.03)" d="M652 563 657 482Q531 456 451.0 429.0Q371 402 327.5 373.5Q284 345 267.5 312.0Q251 279 251 239Q251 171 292.0 134.5Q333 98 397 98Q448 98 489.5 122.0Q531 146 556.0 185.5Q581 225 581 271V631Q581 710 542.0 754.5Q503 799 411 799Q376 799 334.5 790.5Q293 782 255 764L310 815Q306 784 300.0 755.5Q294 727 286.5 704.5Q279 682 267 668Q251 647 226.5 638.5Q202 630 175 630Q139 630 119.0 646.0Q99 662 99 686Q99 718 130.0 753.5Q161 789 214.0 821.0Q267 853 333.5 873.0Q400 893 472 893Q567 893 625.0 864.5Q683 836 709.5 782.0Q736 728 736 649V190Q736 157 745.5 136.0Q755 115 774.0 104.5Q793 94 821 94Q844 94 870.0 102.0Q896 110 922 123V70Q880 25 832.5 4.0Q785 -17 744 -17Q694 -17 657.5 6.0Q621 29 602.0 73.0Q583 117 583 180L589 188Q576 126 539.5 79.5Q503 33 450.0 6.5Q397 -20 334 -20Q225 -20 157.0 38.5Q89 97 89 207Q89 266 113.0 314.5Q137 363 198.0 405.0Q259 447 369.5 485.5Q480 524 652 563Z"/>
    <path transform="translate(261.24,92) scale(0.03,-0.03)" d="M664 895Q714 895 738.5 870.0Q763 845 763 804Q763 756 736.0 727.5Q709 699 663 699Q637 699 610.5 706.5Q584 714 556.0 721.0Q528 728 496 728Q473 728 446.0 722.0Q419 716 392.0 704.5Q365 693 344 677L320 712Q384 761 435.0 795.5Q486 830 528.0 852.0Q570 874 603.5 884.5Q637 895 664 895ZM367 713V94L527 47V0H57V47L212 94V690Q199 703 177.0 715.0Q155 727 125.0 740.5Q95 754 58 768V796L325 902H349Z"/>
  </g>

  <!-- The macron over the second a — heavier slab than the font's own diacritic,
       wider than the bowl, so it reads as a brand event. -->
  <rect x="234.09" y="24" width="27.49" height="4.5"/>

  <!-- ============== Hairline divider ============== -->
  <line x1="300" y1="34" x2="300" y2="100" stroke="currentColor" stroke-width="0.6" opacity="0.45"/>

  <!-- ============== Arabic: مدار ==============
       Amiri Regular outlines. Baseline y=92, scale 0.065.
       Four glyphs in shaped order: mim-initial → dal-final → alif-isolated → ra-isolated.
       (The cursive run for the word "orbit" — typographically correct.) -->
  <g id="arabic">
    <path transform="translate(384.71,92) scale(0.065,-0.065)" d="M233 318Q301 316 326 152Q328 141 323 135L268 66Q261 56 249 59Q172 81 113 131Q66 0 0 0Q-7 0 -15 21Q-31 71 -16 85Q-10 90 0 90Q46 91 88 146Q102 165 153 256Q188 318 233 318ZM161 220Q196 186 251 174Q252 217 222 231Q192 245 161 220Z"/>
    <path transform="translate(354.10,92) scale(0.065,-0.065)" d="M471 90Q487 85 491 64Q496 40 490 20Q484 0 471 0Q406 4 382 109Q378 126 376.0 134.5Q374 143 374 143Q371 151 368 142Q336 57 288 38Q227 13 120 20Q37 26 77 151Q82 166 92 167Q102 168 106 154Q115 125 133 121Q230 100 308 131Q346 146 359 187Q360 193 345 294Q338 344 334.0 375.5Q330 407 328 418Q325 440 331 452Q339 469 345.0 481.5Q351 494 354 502Q357 510 364 509Q372 507 373 499Q385 394 398.5 310.5Q412 227 426 165Q441 97 471 90Z"/>
    <path transform="translate(339.99,92) scale(0.065,-0.065)" d="M89 670Q110 719 116 672L139 427Q177 96 130 7Q123 -5 119 1Q115 6 115 18Q117 102 103 207Q103 211 82 397L60 578Q58 598 64 612Z"/>
    <path transform="translate(314.06,92) scale(0.065,-0.065)" d="M246 279Q247 283 249 284Q254 286 264 276Q303 236 322 169Q342 100 336 35Q324 -53 266 -127Q208 -202 114 -226Q90 -233 66 -225Q8 -205 -28.5 -190.5Q-65 -176 -79 -167Q-83 -164 -83 -161Q-83 -157 -80 -154Q-77 -151 -71 -153Q-36 -163 -7.0 -166.5Q22 -170 47 -167Q72 -164 100.5 -152.5Q129 -141 161 -120Q256 -59 300 24Q304 30 302 40Q287 93 224 171Q221 176 222 179Z"/>
  </g>

  <!-- The alif-madda slab over the alif — the Arabic match for the Latin macron.
       Same y-coordinate and height, so the two slabs share one horizontal axis. -->
  <rect x="334.48" y="24" width="26.30" height="4.5"/>

  <!-- ============== Baseline ticked rule — the macron motif echoed below the mark ============== -->
  <g id="baseline-rule">
    <line x1="240" y1="110" x2="296" y2="110" stroke="currentColor" stroke-width="0.9"/>
    <line x1="240" y1="106" x2="240" y2="114" stroke="currentColor" stroke-width="0.9"/>
    <line x1="296" y1="106" x2="296" y2="114" stroke="currentColor" stroke-width="0.9"/>
  </g>

</svg>
