<svg viewBox="0 0 680 880" role="img" xmlns="http://www.w3.org/2000/svg">
<title>Madār — Edition 01, May 2026 — cover</title>
<desc>Line-art cover in terracotta on a sand ground: a surveyor's compass rose crossed by a horizon line, with cardinal survey markers and a finely ticked azimuth ring. The founding survey — systems, two languages, one question.</desc>
<style>
.wm{font-family:'Cormorant Garamond',Georgia,serif;font-weight:500;fill:#0E1B2C}
.ar{font-family:'Amiri',Georgia,serif;fill:#0E1B2C}
.kick{font-family:'JetBrains Mono','Courier New',monospace;fill:#D94F2A;letter-spacing:3px}
.th{font-family:'Cormorant Garamond',Georgia,serif;font-style:italic;fill:#0E1B2C}
.thm{font-family:'JetBrains Mono','Courier New',monospace;fill:#D94F2A;letter-spacing:2px}
</style>
<rect x="40" y="40" width="600" height="800" fill="#E8E2D0" stroke="#0E1B2C" stroke-width="1"/>
<rect x="54" y="54" width="572" height="772" fill="none" stroke="#0E1B2C" stroke-width="0.5"/>
<g stroke="#0E1B2C" stroke-width="0.7">
<path d="M74 68 V80 M68 74 H80"/><path d="M606 68 V80 M600 74 H612"/>
<path d="M74 800 V812 M68 806 H80"/><path d="M606 800 V812 M600 806 H612"/>
</g>
<text class="wm" x="340" y="120" text-anchor="middle" font-size="40">Madār</text>
<text class="ar" x="340" y="150" text-anchor="middle" font-size="22" direction="rtl">مدار</text>
<text class="kick" x="340" y="180" text-anchor="middle" font-size="12">EDITION 01 · MAY 2026</text>
<line x1="300" y1="192" x2="380" y2="192" stroke="#D94F2A" stroke-width="1"/>
<g>
<circle cx="340" cy="470" r="210" fill="none" stroke="#0E1B2C" stroke-width="0.9"/>
<circle cx="340" cy="470" r="199" fill="none" stroke="#0E1B2C" stroke-width="0.7" stroke-dasharray="1.5 15.9"/>
<circle cx="340" cy="470" r="150" fill="none" stroke="#0E1B2C" stroke-width="0.35" opacity="0.5"/>
<circle cx="340" cy="470" r="120" fill="none" stroke="#D94F2A" stroke-width="0.6" opacity="0.6"/>
<circle cx="340" cy="470" r="66" fill="none" stroke="#0E1B2C" stroke-width="0.4" opacity="0.35"/>
<g stroke="#0E1B2C" stroke-width="0.35" opacity="0.5">
<line x1="340" y1="470" x2="521.8" y2="575"/><line x1="340" y1="470" x2="445" y2="651.8"/>
<line x1="340" y1="470" x2="235" y2="651.8"/><line x1="340" y1="470" x2="158.2" y2="575"/>
<line x1="340" y1="470" x2="158.2" y2="365"/><line x1="340" y1="470" x2="235" y2="288.2"/>
<line x1="340" y1="470" x2="445" y2="288.2"/><line x1="340" y1="470" x2="521.8" y2="365"/>
</g>
<path d="M424.85 385.15 L340 440 L255.15 385.15 L310 470 L255.15 554.85 L340 500 L424.85 554.85 L370 470 Z" fill="#D94F2A" fill-opacity="0.14" stroke="#0E1B2C" stroke-width="0.6"/>
<path d="M340 285 L364 446 L525 470 L364 494 L340 655 L316 494 L155 470 L316 446 Z" fill="#D94F2A" fill-opacity="0.06" stroke="#D94F2A" stroke-width="1.2"/>
<line x1="130" y1="470" x2="550" y2="470" stroke="#0E1B2C" stroke-width="1"/>
<g stroke="#0E1B2C" stroke-width="1"><line x1="130" y1="463" x2="130" y2="477"/><line x1="550" y1="463" x2="550" y2="477"/></g>
<g fill="#D94F2A">
<circle cx="340" cy="260" r="4"/><circle cx="550" cy="470" r="4"/><circle cx="340" cy="680" r="4"/><circle cx="130" cy="470" r="4"/>
</g>
<circle cx="340" cy="470" r="11" fill="none" stroke="#D94F2A" stroke-width="1"/>
<circle cx="340" cy="470" r="5" fill="#0E1B2C"/>
</g>
<text class="th" x="340" y="752" text-anchor="middle" font-size="21">The founding survey</text>
<text class="thm" x="340" y="780" text-anchor="middle" font-size="11">SYSTEMS · TWO LANGUAGES · ONE QUESTION</text>
<g transform="translate(340,802)" stroke="#D94F2A" stroke-width="1">
<line x1="-40" y1="0" x2="40" y2="0"/><line x1="-40" y1="-4" x2="-40" y2="4"/><line x1="40" y1="-4" x2="40" y2="4"/>
</g>
</svg>
