<svg viewBox="0 0 680 880" role="img" xmlns="http://www.w3.org/2000/svg">
<title>Madār — Edition 02, June 2026 — cover</title>
<desc>Line-art cover in pine green on a paper ground: a finely ticked astrolabe with radial sightlines and a twelve-point woven star at its centre. The instrument in use — pedagogy, deployment, measured.</desc>
<style>
.wm{font-family:'Cormorant Garamond',Georgia,serif;font-weight:500;fill:#0E1B2C}
.ar{font-family:'Amiri',Georgia,serif;fill:#0E1B2C}
.kick{font-family:'JetBrains Mono','Courier New',monospace;fill:#2F6F6A;letter-spacing:3px}
.th{font-family:'Cormorant Garamond',Georgia,serif;font-style:italic;fill:#0E1B2C}
.thm{font-family:'JetBrains Mono','Courier New',monospace;fill:#2F6F6A;letter-spacing:2px}
</style>
<rect x="40" y="40" width="600" height="800" fill="#FAFAF7" stroke="#0E1B2C" stroke-width="1"/>
<rect x="54" y="54" width="572" height="772" fill="none" stroke="#0E1B2C" stroke-width="0.5"/>
<g stroke="#0E1B2C" stroke-width="0.7">
<path d="M74 68 V80 M68 74 H80"/><path d="M606 68 V80 M600 74 H612"/>
<path d="M74 800 V812 M68 806 H80"/><path d="M606 800 V812 M600 806 H612"/>
</g>
<text class="wm" x="340" y="120" text-anchor="middle" font-size="40">Madār</text>
<text class="ar" x="340" y="150" text-anchor="middle" font-size="22" direction="rtl">مدار</text>
<text class="kick" x="340" y="180" text-anchor="middle" font-size="12">EDITION 02 · JUNE 2026</text>
<line x1="300" y1="192" x2="380" y2="192" stroke="#2F6F6A" stroke-width="1"/>
<g>
<circle cx="340" cy="470" r="210" fill="none" stroke="#0E1B2C" stroke-width="0.9"/>
<circle cx="340" cy="470" r="199" fill="none" stroke="#0E1B2C" stroke-width="0.7" stroke-dasharray="1.5 15.9"/>
<circle cx="340" cy="470" r="150" fill="none" stroke="#2F6F6A" stroke-width="0.9"/>
<circle cx="340" cy="470" r="108" fill="none" stroke="#0E1B2C" stroke-width="0.4" opacity="0.5"/>
<circle cx="340" cy="470" r="66" fill="none" stroke="#0E1B2C" stroke-width="0.4" opacity="0.4"/>
<g stroke="#0E1B2C" stroke-width="0.4" opacity="0.55">
<line x1="340" y1="470" x2="550" y2="470"/><line x1="340" y1="470" x2="521.8" y2="575"/>
<line x1="340" y1="470" x2="445" y2="651.8"/><line x1="340" y1="470" x2="340" y2="680"/>
<line x1="340" y1="470" x2="235" y2="651.8"/><line x1="340" y1="470" x2="158.2" y2="575"/>
<line x1="340" y1="470" x2="130" y2="470"/><line x1="340" y1="470" x2="158.2" y2="365"/>
<line x1="340" y1="470" x2="235" y2="288.2"/><line x1="340" y1="470" x2="340" y2="260"/>
<line x1="340" y1="470" x2="445" y2="288.2"/><line x1="340" y1="470" x2="521.8" y2="365"/>
</g>
<path d="M490 470 L210.1 545 L415 340.1 L340 620 L265 340.1 L469.9 545 L190 470 L469.9 395 L265 599.9 L340 320 L415 599.9 L210.1 395 Z" fill="none" stroke="#2F6F6A" stroke-width="1" opacity="0.92"/>
<path d="M435 470 L257.7 517.5 L387.5 387.7 L340 565 L292.5 387.7 L422.3 517.5 L245 470 L422.3 422.5 L292.5 552.3 L340 375 L387.5 552.3 L257.7 422.5 Z" fill="none" stroke="#0E1B2C" stroke-width="0.5" opacity="0.32"/>
<line x1="142.7" y1="398.2" x2="537.3" y2="541.8" stroke="#2F6F6A" stroke-width="1.6"/>
<g stroke="#2F6F6A" stroke-width="1.4">
<line x1="525" y1="528" x2="549.6" y2="537"/><line x1="155" y1="412" x2="130.4" y2="403"/>
</g>
<circle cx="340" cy="470" r="11" fill="none" stroke="#2F6F6A" stroke-width="1"/>
<circle cx="340" cy="470" r="5" fill="#0E1B2C"/>
</g>
<text class="th" x="340" y="752" text-anchor="middle" font-size="21">The instrument in use</text>
<text class="thm" x="340" y="780" text-anchor="middle" font-size="11">PEDAGOGY · DEPLOYMENT · MEASURED</text>
<g transform="translate(340,802)">
<circle cx="-34" cy="0" r="3.5" fill="none" stroke="#2F6F6A" stroke-width="1"/>
<line x1="-30.5" y1="0" x2="30.5" y2="0" stroke="#2F6F6A" stroke-width="1"/>
<circle cx="34" cy="0" r="3.5" fill="none" stroke="#2F6F6A" stroke-width="1"/>
</g>
</svg>
